# xmcd
#
# Track frame offsets: 
#        150
#        39805
#        76362
#        120202
#        153495
#        224030
#
# Disc length: 3281 seconds
#
# Revision: 0
# Processed by: cddbd v1.5.2PL0 Copyright (c) Steve Scherf et al.
# Submitted via: ExactAudioCopy v0.99pb5
#
DISCID=430ccf06
DTITLE=Led Zeppelin  - Avocado Club-Fillmore West - San Francisco CA -
DTITLE=D 4
DYEAR=1900
DGENRE=
TTITLE0=Killing Floor
TTITLE1=Babe I'm Gonna Leave You
TTITLE2=White Summer \\ Black Mountain Side
TTITLE3=Sitting And Thinking
TTITLE4=Pat's Delight
TTITLE5=Dazed And Confused
EXTD=
EXTT0=
EXTT1=
EXTT2=
EXTT3=
EXTT4=
EXTT5=
PLAYORDER=
